<?xml version="1.0" standalone="no"?>
<!DOCTYPE svg PUBLIC "-//W3C//DTD SVG 20010904//EN"
 "http://www.w3.org/TR/2001/REC-SVG-20010904/DTD/svg10.dtd">
<svg version="1.0" xmlns="http://www.w3.org/2000/svg"
 width="543.000000pt" height="543.000000pt" viewBox="0 0 543.000000 543.000000"
 preserveAspectRatio="xMidYMid meet">
<metadata>
Created by potrace 1.11, written by Peter Selinger 2001-2013
</metadata>
<g transform="translate(0.000000,543.000000) scale(0.100000,-0.100000)"
fill="#000000" stroke="none">
<path d="M924 4528 c-355 -362 -582 -785 -678 -1263 -39 -192 -49 -323 -43
-547 10 -385 81 -674 251 -1023 270 -552 740 -988 1310 -1214 601 -238 1229
-236 1821 5 591 241 1073 718 1319 1305 356 850 223 1798 -353 2517 -43 53
-88 106 -101 117 -13 11 8 -17 45 -63 173 -208 343 -514 430 -774 25 -75 48
-146 50 -157 3 -12 8 -31 11 -43 39 -146 74 -425 74 -585 0 -168 -36 -452 -73
-588 -63 -224 -109 -346 -196 -520 -122 -241 -230 -392 -431 -599 -379 -390
-855 -633 -1399 -713 -143 -21 -473 -23 -611 -4 -533 73 -1000 298 -1379 666
-328 318 -546 688 -662 1121 -30 115 -35 133 -44 189 -3 17 -8 37 -10 46 -12
37 -35 303 -35 397 0 129 24 357 50 482 105 488 312 879 659 1242 47 48 83 88
80 88 -2 0 -41 -37 -85 -82z"/>
<path d="M4286 4400 c49 -52 103 -113 119 -135 17 -22 38 -49 48 -60 10 -11
47 -64 83 -117 359 -542 477 -1212 323 -1836 -79 -322 -243 -652 -450 -909
-91 -113 -269 -286 -386 -376 -354 -270 -758 -425 -1223 -468 -178 -16 -386
-2 -627 45 -151 29 -434 133 -593 218 -667 355 -1104 993 -1211 1768 -19 136
-16 429 5 574 9 65 15 120 13 123 -3 2 -10 -31 -16 -74 -26 -184 -33 -295 -28
-433 40 -972 658 -1818 1563 -2139 303 -108 657 -158 929 -132 420 41 773 162
1103 381 544 361 904 931 1009 1600 25 161 25 502 0 655 -61 369 -185 688
-378 976 -76 114 -221 289 -305 369 -54 51 -49 45 22 -30z"/>
<path d="M4666 4360 c4 -8 29 -44 54 -80 228 -318 396 -757 446 -1170 21 -171
15 -550 -11 -710 -96 -599 -409 -1162 -860 -1548 -265 -227 -617 -419 -936
-510 -289 -83 -395 -97 -729 -97 -243 1 -289 3 -395 23 -345 66 -614 165 -893
330 -306 182 -607 466 -799 756 -72 109 -100 145 -63 81 312 -536 878 -969
1501 -1145 261 -74 353 -85 699 -85 340 0 415 9 673 80 984 270 1719 1118
1852 2138 19 152 20 522 1 667 -54 399 -201 788 -421 1115 -68 101 -137 191
-119 155z"/>
<path d="M1144 3296 c-23 -7 -68 -27 -100 -45 -55 -30 -143 -53 -364 -96 -47
-10 -86 -18 -88 -20 -1 -1 69 -55 156 -119 l158 -117 2 -142 c2 -130 13 -287
28 -395 6 -38 13 -47 63 -82 31 -22 72 -54 92 -70 35 -30 36 -30 87 -19 41 10
69 10 136 -1 65 -10 94 -10 129 -1 75 18 97 14 176 -39 41 -27 78 -47 83 -44
4 3 2 11 -6 19 -7 8 -28 67 -45 132 -48 181 -62 199 -105 136 -22 -32 -26 -49
-26 -109 l0 -71 -37 -7 c-47 -7 -57 4 -116 126 -33 67 -48 88 -67 93 -14 4
-36 16 -49 28 l-24 22 6 -105 5 -105 -36 93 c-24 62 -41 92 -51 92 -10 0 -12
-3 -5 -8 10 -7 84 -202 84 -223 0 -19 -58 -8 -84 16 -25 23 -26 29 -26 119 0
75 -3 97 -15 104 -34 18 -45 278 -19 454 9 61 12 113 8 117 -5 5 -49 16 -99
25 -148 29 -187 38 -182 43 3 2 50 12 106 22 l101 19 40 -46 c36 -40 40 -42
40 -21 0 12 -12 35 -26 50 l-26 27 79 43 c139 77 247 66 348 -37 60 -61 67
-61 129 -6 53 47 100 65 171 65 72 1 143 -28 186 -74 37 -39 38 -22 2 23 -65
77 -123 109 -214 116 -82 6 -150 -15 -207 -63 -22 -19 -45 -35 -51 -35 -5 0
-31 20 -56 44 -78 76 -190 103 -291 72z"/>
<path d="M2155 3103 c-116 -93 -133 -115 -102 -135 28 -18 64 -7 98 28 18 20
57 53 85 74 49 37 52 38 92 27 35 -9 47 -8 79 8 31 15 63 20 166 21 73 1 127
-2 127 -7 0 -5 -14 -12 -30 -16 -39 -7 -49 -23 -14 -23 23 0 25 -2 13 -16 -9
-11 -25 -15 -53 -12 -35 4 -48 -1 -93 -35 -29 -22 -53 -41 -53 -42 0 -2 24 5
54 16 30 10 86 22 125 25 79 8 78 5 73 99 l-4 62 -66 7 c-115 10 -234 6 -277
-10 -76 -29 -85 -29 -85 0 0 14 -3 26 -7 25 -5 0 -62 -44 -128 -96z"/>
<path d="M3134 3146 c-22 -7 -82 -39 -132 -72 -84 -54 -92 -62 -92 -90 0 -17
-3 -46 -6 -63 -6 -31 -7 -31 -70 -31 -68 0 -76 -8 -44 -40 16 -16 33 -20 84
-20 75 0 87 10 94 79 4 47 6 49 81 99 111 75 133 82 259 82 l109 0 -1 -30 c-1
-27 -4 -30 -35 -30 -26 0 -45 -10 -82 -45 -26 -25 -42 -45 -36 -45 7 0 17 4
23 9 5 5 45 17 89 26 44 9 80 17 82 18 4 5 6 147 2 151 -2 2 -67 6 -144 9 -99
4 -152 2 -181 -7z"/>
<path d="M3763 3139 c-70 -27 -145 -96 -167 -154 -17 -44 -19 -45 -62 -45 -51
0 -55 -10 -17 -40 20 -15 38 -20 67 -18 34 3 44 10 63 38 61 96 73 108 134
139 49 25 75 31 123 31 54 0 70 -5 131 -42 62 -37 76 -41 120 -38 146 11 199
5 279 -33 42 -20 76 -40 76 -45 0 -5 -22 -30 -50 -56 -27 -25 -47 -46 -44 -46
3 0 30 16 60 35 54 35 74 42 74 27 0 -5 6 -17 14 -27 13 -18 14 -18 9 8 -3 15
-9 30 -14 33 -5 3 -9 14 -9 25 0 23 -63 71 -150 113 -59 28 -74 31 -160 31
-52 0 -111 -3 -131 -8 -33 -7 -41 -4 -79 28 -45 37 -122 65 -179 64 -20 0 -59
-9 -88 -20z"/>
<path d="M4574 2565 c3 -11 10 -39 17 -62 13 -48 5 -111 -17 -120 -21 -8 -105
17 -111 33 -3 9 -12 3 -27 -18 -59 -89 -186 -110 -320 -54 -20 8 -36 11 -36 7
0 -5 -27 -26 -60 -47 -32 -22 -60 -46 -60 -54 0 -8 -7 -1 -14 16 -7 16 -25 42
-38 57 -22 24 -27 25 -38 12 -9 -10 -17 -12 -30 -5 -14 8 -31 0 -78 -38 -34
-26 -61 -50 -62 -54 0 -3 25 0 55 7 38 8 53 9 48 1 -4 -6 -44 -71 -91 -144
-76 -120 -109 -155 -95 -102 5 20 -30 70 -49 70 -9 0 -11 -140 -2 -163 5 -15
41 6 322 190 l54 35 56 -20 c76 -28 185 -46 230 -38 84 14 100 18 165 48 80
37 147 103 185 186 33 70 37 184 9 242 -9 19 -15 26 -13 15z"/>
<path d="M1820 2402 c-29 -22 -34 -33 -32 -58 3 -27 6 -31 25 -26 17 4 11 -7
-30 -59 -72 -90 -65 -99 73 -99 64 0 130 6 170 16 63 16 66 16 87 -4 19 -17
34 -19 112 -17 50 1 108 5 131 10 40 7 41 7 90 -54 32 -39 52 -57 58 -51 7 7
5 20 -6 38 -16 26 -38 124 -38 166 0 13 16 -7 43 -52 l42 -72 73 0 73 0 21
-36 c19 -32 22 -34 36 -20 12 12 13 18 3 29 -6 8 -12 40 -12 71 -1 31 -5 54
-9 51 -4 -3 -13 31 -20 74 l-12 79 -49 -2 c-43 -1 -51 -4 -56 -24 -3 -12 -3
-37 0 -55 5 -26 0 -21 -24 26 -23 45 -34 57 -53 57 -13 0 -29 7 -36 15 -10 12
-14 12 -26 1 -7 -8 -18 -16 -24 -18 -6 -2 -16 -33 -22 -70 l-11 -66 -53 61
c-31 35 -52 68 -49 76 4 11 -4 12 -43 7 -35 -4 -53 -2 -70 10 -21 14 -25 14
-47 0 -36 -24 -46 -50 -52 -132 -5 -68 -8 -75 -30 -80 -13 -4 -30 -1 -38 6
-19 16 -78 115 -95 160 -15 40 -38 70 -54 70 -6 0 -27 -13 -46 -28z"/>
<path d="M3125 2382 c-38 -20 -150 -29 -169 -13 -20 16 -22 7 -21 -82 l0 -78
-17 58 c-10 32 -18 64 -18 71 0 6 -8 12 -19 12 -10 0 -31 10 -47 22 -15 13
-25 18 -21 12 3 -6 -5 -17 -20 -25 l-25 -14 6 -100 c3 -55 7 -105 8 -112 2
-19 108 -25 238 -13 l124 12 20 -25 c12 -13 34 -42 50 -62 28 -36 30 -37 37
-17 5 13 3 32 -5 49 -8 15 -16 62 -20 103 l-6 75 34 -71 33 -71 59 -6 c32 -3
60 -4 62 -2 3 3 -74 235 -80 240 -2 1 -17 5 -35 8 -26 5 -37 1 -70 -29 -37
-34 -38 -35 -41 -12 -2 13 -13 31 -23 41 -16 15 -18 22 -8 33 14 17 13 17 -26
-4z"/>
<path d="M3476 2366 c6 -16 -49 -59 -61 -48 -4 4 -4 -33 0 -83 4 -49 8 -97 8
-107 1 -11 14 -18 42 -23 84 -15 86 -14 137 53 27 35 48 66 48 68 0 3 9 18 20
34 11 15 29 49 40 75 l20 47 -34 -22 c-56 -34 -122 -37 -178 -6 -29 15 -45 20
-42 12z"/>
</g>
</svg>
